<?xml version="1.0" encoding="UTF-8"?>
<svg width="326px" height="365px" viewBox="0 0 326 365" version="1.1" xmlns="http://www.w3.org/2000/svg" xmlns:xlink="http://www.w3.org/1999/xlink">
    <!-- Generator: Sketch 49.3 (51167) - http://www.bohemiancoding.com/sketch -->
    <title>E Logo</title>
    <desc>Created with Sketch.</desc>
    <defs></defs>
    <g id="Logos" stroke="none" stroke-width="1" fill="none" fill-rule="evenodd">
        <g id="Logo" transform="translate(-87.000000, -33.000000)">
            <g id="Group" transform="translate(55.000000, 33.000000)">
                <g id="E-Logo" transform="translate(32.000000, 0.000000)">
                    <path d="M108,161 L167,161 L167,124 L220.105469,124 L220.105469,233 L167,233 L167,196 L108,196 L108,233 L55,233 L55,124 L108,124 L108,161 Z" id="Combined-Shape" fill="#F8D5D2"></path>
                    <path d="M55,119 L54.7851562,80.5664062 C54.7851562,62.4022529 51.7090151,49.755895 45.5566406,42.6269531 C39.4042661,35.4980112 26.6602529,31.9335938 7.32421875,31.9335938 L0,31.9335938 L0,0 L298.378906,0 L304.238281,102.832031 L271.425781,102.832031 C265.566377,84.8631914 259.023474,70.5566938 251.796875,59.9121094 C244.570276,49.2675249 237.294958,42.4316558 229.970703,39.4042969 C222.646448,36.376938 210.293056,34.8632813 192.910156,34.8632813 L107.789062,34.8632812 L108,119 L55,119 Z" id="E" fill="#EBAFBC"></path>
                    <path d="M108,238 L108,272.566406 C108,295.107229 109.863271,303.572237 112.011719,309.333984 C114.160167,315.095732 119.921828,319.88084 129.296875,323.689453 C138.671922,327.498066 162.929592,329.402344 182.070312,329.402344 C208.047005,329.402344 227.138611,326.17972 239.345703,319.734375 C251.552795,313.28903 262.490186,301.961019 272.158203,285.75 C281.82622,269.538981 288.808572,252.253998 293.105469,233.894531 L325.917969,233.894531 L323.28125,364.265625 L0,364.265625 L0,331.746094 L7.32421875,331.746094 C27.0508799,331.746094 39.8925483,328.084021 45.8496094,320.759766 C51.8066704,313.43551 54.7851562,300.886808 54.7851562,283.113281 L55,238 L108,238 Z" id="E" fill="#EBAFBC"></path>
                </g>
            </g>
        </g>
    </g>
</svg>