<?xml version="1.0" encoding="UTF-8"?>
<svg width="11px" height="12px" viewBox="0 0 11 12" version="1.1" xmlns="http://www.w3.org/2000/svg" xmlns:xlink="http://www.w3.org/1999/xlink">
    <!-- Generator: Sketch 49.3 (51167) - http://www.bohemiancoding.com/sketch -->
    <title>E Logo</title>
    <desc>Created with Sketch.</desc>
    <defs></defs>
    <g id="Logos" stroke="none" stroke-width="1" fill="none" fill-rule="evenodd">
        <g id="Logo-Black-(tiny)" transform="translate(-7.000000, -6.000000)" fill="#000000">
            <g id="E-Logo" transform="translate(7.000000, 6.000000)">
                <path d="M3.55068493,5.29315068 L5.49041096,5.29315068 L5.49041096,4.23999977 L7.23634418,4.23999977 L7.23634418,7.5 L5.49041096,7.5 L5.49041096,6.44383562 L3.55068493,6.44383562 L3.55068493,7.5 L1.80821918,7.5 L1.80821918,4.23999977 L3.55068493,4.23999977 L3.55068493,5.29315068 Z" id="Combined-Shape"></path>
                <path d="M1.80821918,3.91232877 L1.80115582,2.64875856 C1.80115582,2.05158092 1.70002242,1.63581025 1.49775257,1.40143408 C1.29548272,1.1670579 0.876501466,1.04987158 0.240796233,1.04987158 L0,1.04987158 L0,0 L9.80971747,0 L10.0023545,3.38077911 L8.92358733,3.38077911 C8.73094938,2.79002273 8.51584023,2.31967213 8.27825342,1.96971318 C8.04066662,1.61975424 7.80147809,1.39501334 7.56068065,1.29548373 C7.31988321,1.19595413 6.9137443,1.14619007 6.34225171,1.14619007 L3.54375,1.14619007 L3.55068493,3.91232877 L1.80821918,3.91232877 Z" id="E"></path>
                <path d="M3.55068493,7.82465753 L3.55068493,8.96108733 C3.55068493,9.70215548 3.61194314,9.9804571 3.68257705,10.1698844 C3.75321097,10.3593117 3.94263545,10.5166304 4.25085616,10.641845 C4.55907688,10.7670597 5.35658932,10.8296661 5.98587329,10.8296661 C6.83990153,10.8296661 7.46757077,10.7237168 7.86889983,10.5118151 C8.27022889,10.2999133 8.62981434,9.92748554 8.94766695,9.39452055 C9.26551957,8.86155555 9.49507635,8.29328213 9.63634418,7.68968322 L10.7151113,7.68968322 L10.6284247,11.9758562 L0,11.9758562 L0,10.9067209 L0.240796233,10.9067209 C0.889343996,10.9067209 1.31153584,10.786324 1.50738442,10.5455265 C1.703233,10.3047291 1.80115582,9.89216902 1.80115582,9.3078339 L1.80821918,7.82465753 L3.55068493,7.82465753 Z" id="E"></path>
            </g>
        </g>
    </g>
</svg>