<svg width="470" height="148" viewBox="0 0 470 148" xmlns="http://www.w3.org/2000/svg" xmlns:xlink="http://www.w3.org/1999/xlink"><title>paypal-button</title><defs><radialGradient fx="50%" fy="50%" id="a"><stop stop-color="#FFF" offset="0%"/><stop stop-color="#F58220" offset="100%"/></radialGradient><path id="b" d="M.036 47.363V.078h75.62v47.285H.036z"/><path id="d" d="M0 .137V32.46h111.108V.137z"/><path id="f" d="M93.376.137V40H.227V.137z"/></defs><g fill="none" fill-rule="evenodd"><path d="M464.99 145.038a2.522 2.522 0 0 1-2.522 2.521h-70.613a2.52 2.52 0 0 1-2.52-2.52v-42.243a2.52 2.52 0 0 1 2.52-2.521h70.613a2.522 2.522 0 0 1 2.522 2.52v42.243" fill="#0078A9"/><path d="M412.808 122.816v-.756l-.362.756h-3.132l-.394-.812v.812h-5.855l-.691-1.637H401.2l-.732 1.637h-3.036v-4.943l2.225-5.035h4.26l.6 1.426v-1.416h5.21l1.147 2.403 1.12-2.413h16.451s.863-.012 1.43.387l-.003-.387h4.145v.545s.745-.545 1.847-.545h7.313l.643 1.448v-1.448h4.686l.85 1.448v-1.448h4.48v9.987h-4.602l-1.082-1.74v1.731h-5.72l-.805-1.783h-1.121l-.754 1.783h-3.463s-1.29-.016-2.26-.709v.71h-6.892v-2.33c0-.34-.26-.316-.26-.316h-.252v2.645h-13.817m-3.44 2.164h9.057l1.307 1.479 1.338-1.48h6.963s.654.017 1.275.348v-.348h6.201c.787 0 1.448.394 1.448.394v-.394h7.971v.363s.568-.363 1.331-.363h5.193v.363s.654-.363 1.346-.363h4.077v9.412s-.536.606-1.645.606h-5.375v-.299s-.512.3-1.292.3h-14.28v-2.433c0-.24-.103-.283-.316-.283h-.196v2.715h-4.463V132.3s-.495.266-1.322.266h-1.604v2.432h-5.501l-1.251-1.526-1.338 1.526h-8.924V124.98" fill="#FFF"/><path fill="#0078A9" d="M437.914 126.481h5.684v1.524h-3.944v1.33h3.833v1.342h-3.833v1.399h3.944v1.486h-5.684v-7.08m16.665 2.758c2.136.11 2.315 1.177 2.315 2.315 0 1.326-1.091 2.04-2.23 2.04h-3.651v-1.52h2.845c.483 0 1.202 0 1.202-.68 0-.322-.126-.528-.64-.582a20.221 20.221 0 0 0-1.202-.082c-1.93-.051-2.38-1.011-2.38-2.18 0-1.327.933-2.054 2.073-2.054h3.65v1.518h-2.671c-.608.006-1.265-.072-1.265.615 0 .435.324.522.736.562.142 0 1.09.05 1.218.048m-6.547 0c2.137.11 2.316 1.177 2.316 2.315 0 1.326-1.09 2.04-2.228 2.04h-3.651v-1.52h2.845c.482 0 1.201 0 1.201-.68 0-.322-.127-.528-.64-.582a20.29 20.29 0 0 0-1.201-.082c-1.932-.051-2.379-1.011-2.379-2.18 0-1.327.932-2.054 2.07-2.054h3.65v1.518h-2.67c-.609.006-1.265-.072-1.265.615 0 .435.325.522.737.562.14 0 1.089.05 1.215.048m-21.199.476h-2.165v-1.7h2.172c.728 0 .957.467.957.815 0 .474-.253.885-.964.885zm-3.92 3.182l-2.497-2.956 2.497-2.766v5.722zm-6.645-.822h-4.009v-1.399h3.834v-1.342h-3.834v-1.33l4.228.01 1.693 1.927-1.912 2.134zm11.15-5.58h-6.101l-1.992 2.198-1.928-2.213h-6.852v7.081h6.63l2.087-2.34 2.039 2.357h3.336v-2.405h2.338c.901 0 2.546-.03 2.546-2.512 0-1.77-1.249-2.166-2.103-2.166zm6.898 3.124h-2.165v-1.604h2.172c.727 0 .957.467.957.815 0 .473-.252.79-.964.79zm1.5.734c.95-.474 1.202-1.107 1.202-1.96 0-1.517-1.232-1.897-2.086-1.897h-4.52v7.082h1.739v-2.499h2.276c.6 0 .837.601.853 1.202l.046 1.297h1.692l-.063-1.455c0-1.139-.315-1.676-1.138-1.77zm-4.708-9.008h1.739v-7.09h-1.739zm-14.232-7.082h5.682v1.525h-3.943v1.33h3.832v1.342h-3.832v1.399h3.943v1.486h-5.682v-7.082m10.617 3.124h-2.164v-1.605h2.173c.725 0 .956.467.956.814 0 .475-.253.79-.965.79zm1.503.733c.95-.473 1.201-1.107 1.201-1.96 0-1.518-1.233-1.897-2.086-1.897h-4.521v7.082h1.739v-2.497h2.275c.601 0 .84.6.854 1.2l.048 1.297h1.691l-.062-1.455c0-1.138-.317-1.675-1.14-1.77zm-28.38.116l1.037-2.475 1.08 2.475h-2.117zm12.25-3.973l-2.134 4.75-2.126-4.75h-2.727v6.82l-3.034-6.82h-2.3l-3.1 7.082h1.835l.678-1.581h3.471l.688 1.58h3.5v-5.255l2.325 5.256h1.58l2.379-5.17v5.17h1.739v-7.082h-2.775zm27.242 3.976l1.036-2.475 1.091 2.476h-2.127zm10.68-3.98v4.904l-2.933-4.903h-2.57v6.65l-2.96-6.647h-2.301l-2.395 5.486s-1.013 0-1.115-.025c-.418-.086-1.073-.382-1.082-1.63v-.514c0-1.66.902-1.781 2.058-1.781h1.073v-1.54h-2.27c-.79 0-2.51.604-2.569 3.513-.04 1.96.814 3.576 2.743 3.576h2.292l.68-1.58h3.469l.688 1.58h3.43v-5.185l3.13 5.185h2.37v-7.088h-1.738z"/><path d="M368.84 145.2a2.523 2.523 0 0 1-2.522 2.523h-70.612a2.523 2.523 0 0 1-2.522-2.522V102.96a2.522 2.522 0 0 1 2.522-2.523h70.612a2.522 2.522 0 0 1 2.522 2.523v42.24" fill="#F9F9F9"/><path d="M313.98 147.723h52.338a2.523 2.523 0 0 0 2.522-2.522v-17.705c-5.023 3.184-23.961 14.162-54.86 20.227" fill="#F6821F"/><path d="M312.116 125.847c-.436.394-.997.564-1.89.564h-.371v-4.682h.37c.894 0 1.434.159 1.891.572.478.425.763 1.083.763 1.761 0 .681-.285 1.362-.763 1.785zm-1.614-5.317h-2.03v7.08h2.02c1.071 0 1.846-.255 2.526-.816a3.57 3.57 0 0 0 1.284-2.72c0-2.09-1.561-3.544-3.8-3.544zm4.438 7.08h1.38v-7.08h-1.38zm4.757-4.365c-.83-.306-1.074-.509-1.074-.89 0-.446.434-.785 1.03-.785.414 0 .754.17 1.115.571l.721-.942a3.09 3.09 0 0 0-2.08-.787c-1.252 0-2.208.87-2.208 2.027 0 .978.445 1.476 1.74 1.943.542.19.818.318.956.404.276.181.415.435.415.731 0 .576-.457.999-1.074.999-.658 0-1.188-.328-1.507-.944l-.89.86c.635.934 1.4 1.348 2.451 1.348 1.434 0 2.442-.956 2.442-2.325 0-1.125-.466-1.635-2.037-2.21m2.471.828c0 2.083 1.636 3.696 3.738 3.696.596 0 1.104-.117 1.731-.414v-1.624c-.553.552-1.041.774-1.667.774-1.391 0-2.379-1.009-2.379-2.443 0-1.357 1.019-2.43 2.315-2.43.657 0 1.157.235 1.731.796v-1.624c-.605-.308-1.105-.434-1.699-.434-2.092 0-3.77 1.646-3.77 3.703m16.658 1.213l-1.89-4.756h-1.507l3.005 7.261h.743l3.057-7.261h-1.496l-1.912 4.756m4.036 2.324h3.917v-1.2h-2.538v-1.91h2.442v-1.2h-2.442v-1.572h2.538v-1.2h-3.917v7.08m6.611-3.82h-.402v-2.145h.425c.861 0 1.329.363 1.329 1.05 0 .712-.468 1.095-1.352 1.095zm2.772-1.168c0-1.327-.913-2.09-2.506-2.09h-2.049v7.08h1.381v-2.845h.181l1.91 2.845h1.699l-2.23-2.983c1.041-.212 1.614-.923 1.614-2.007z" fill="#001722"/><path d="M352.958 121.142h-.028v-.161h.03c.073 0 .11.026.11.079 0 .054-.039.082-.112.082zm.261-.085c0-.123-.083-.192-.235-.192h-.202v.625h.148v-.243l.175.243h.185l-.208-.258c.088-.024.137-.088.137-.175z" fill="#231F1F"/><path d="M353.012 121.623a.44.44 0 0 1-.436-.446.44.44 0 0 1 .436-.447.44.44 0 0 1 .43.447.439.439 0 0 1-.43.446zm0-.992a.542.542 0 0 0-.543.545c0 .302.243.544.544.544a.544.544 0 1 0 0-1.09v.001z" fill="#231F1F"/><path d="M38.936 20.398c-2.084 0-3.775 1.64-3.775 3.663 0 2.153 1.617 3.761 3.775 3.761 2.105 0 3.766-1.63 3.766-3.719 0-2.075-1.651-3.705-3.766-3.705" fill="url(#a)" transform="translate(293 100)"/><g transform="translate(197 100)"><mask id="c" fill="#fff"><use xlink:href="#b"/></mask><path d="M75.656 44.842a2.52 2.52 0 0 1-2.521 2.521H2.522A2.521 2.521 0 0 1 0 44.842V2.6A2.522 2.522 0 0 1 2.522.078h70.613a2.522 2.522 0 0 1 2.521 2.523v42.24" fill="#F9F9F9" mask="url(#c)"/><path fill="#0066B2" mask="url(#c)" d="M34.816 30.823H31.12l2.31-14.195h3.696l-2.311 14.195M28.01 16.628l-3.522 9.764-.418-2.103-1.243-6.383s-.15-1.278-1.753-1.278H15.25l-.068.241s1.781.37 3.867 1.622l3.21 12.332h3.851l5.88-14.195h-3.98"/><path d="M24.07 24.29l-1.243-6.384s-.15-1.278-1.753-1.278H15.25l-.068.241s2.8.58 5.486 2.753c2.567 2.078 3.403 4.668 3.403 4.668" fill="#F9A533" mask="url(#c)"/><path d="M53.015 25.803l1.94-5.314 1.094 5.314h-3.034zm4.066 5.02h3.394l-2.96-14.195h-2.97c-1.372 0-1.706 1.058-1.706 1.058l-5.512 13.137h3.852l.77-2.108h4.699l.433 2.108zm-9.465-10.781l.527-3.049s-1.628-.619-3.324-.619c-1.834 0-6.19.802-6.19 4.7 0 3.668 5.113 3.713 5.113 5.638 0 1.926-4.586 1.582-6.1.368l-.549 3.185s1.65.803 4.173.803c2.52 0 6.327-1.306 6.327-4.86 0-3.69-5.158-4.035-5.158-5.64 0-1.604 3.6-1.398 5.18-.526" fill="#0066B2" mask="url(#c)"/></g><path d="M176.99 144.842a2.521 2.521 0 0 1-2.522 2.521h-70.613a2.52 2.52 0 0 1-2.52-2.521V102.6a2.521 2.521 0 0 1 2.52-2.523h70.613a2.522 2.522 0 0 1 2.522 2.523v42.24" fill="#13457C"/><path fill="#FBB231" d="M148.24 137.294l.702-.018.691-.05.678-.087.673-.12.656-.15.645-.183.631-.216.618-.242.604-.275.587-.298.568-.33.554-.352.531-.38.512-.403.495-.425.471-.453.454-.472.425-.495.404-.512.38-.532.352-.554.33-.568.297-.586.274-.604.243-.619.215-.631.184-.645.15-.655.12-.673.087-.678.05-.691.018-.7-.017-.697-.051-.687-.087-.677-.12-.664-.15-.655-.184-.64-.215-.632-.243-.614-.274-.6-.298-.586-.329-.563-.352-.554-.38-.531-.404-.509-.425-.493-.454-.472-.471-.449-.495-.426-.512-.403-.531-.38-.554-.353-.568-.324-.587-.298-.604-.275-.618-.243-.631-.214-.645-.184-.656-.151-.673-.118-.678-.088-.691-.05-.701-.02-.695.02-.692.05-.677.088-.67.118-.654.151-.646.184-.626.214-.62.243-.599.275-.58.298-.568.324-.55.353-.53.38-.515.403-.49.426-.47.449-.45.472-.425.493-.403.509-.376.531-.353.554-.324.563-.303.587-.27.599-.242.614-.211.631-.183.641-.152.655-.119.664-.085.677-.051.687-.02.696.02.7.05.692.086.678.12.673.151.655.183.645.211.631.243.62.27.603.302.586.324.568.353.554.376.532.403.512.425.495.45.472.47.453.49.425.514.404.53.38.55.352.568.33.581.297.6.275.619.242.626.216.646.183.655.15.669.12.677.087.692.05.695.018"/><path fill="#EC1C2E" d="M130.083 137.294l.695-.018.692-.05.679-.087.667-.12.655-.15.644-.183.628-.216.62-.242.599-.275.582-.298.566-.33.55-.352.532-.38.512-.403.49-.425.472-.453.449-.472.426-.495.402-.512.376-.532.352-.554.325-.568.303-.586.27-.604.242-.619.211-.631.183-.645.152-.655.117-.673.088-.678.05-.691.018-.7-.018-.697-.05-.687-.088-.677-.117-.664-.152-.655-.183-.64-.211-.632-.243-.614-.27-.6-.302-.586-.325-.563-.352-.554-.376-.531-.402-.509-.426-.493-.45-.472-.47-.449-.49-.426-.513-.403-.532-.38-.55-.353-.566-.324-.582-.298-.6-.275-.619-.243-.628-.214-.644-.184-.655-.151-.667-.118-.679-.088-.692-.05-.695-.02-.7.02-.692.05-.678.088-.674.118-.653.151-.646.184-.633.214-.617.243-.605.275-.585.298-.568.324-.555.353-.53.38-.513.403-.495.426-.472.449-.453.472-.425.493-.403.509-.38.531-.353.554-.33.563-.297.587-.275.599-.242.614-.215.631-.184.641-.15.655-.12.664-.087.677-.05.687-.018.696.017.7.05.692.088.678.12.673.15.655.184.645.215.631.242.62.275.603.298.586.33.568.352.554.38.532.403.512.425.495.453.472.472.453.495.425.512.404.531.38.555.352.568.33.585.297.605.275.617.242.633.216.646.183.653.15.674.12.678.087.691.05.701.018"/><path fill="#FBB231" d="M137.573 115.354h7.213v-.737h-6.59l-.623.737m-1.08 1.639h8.293v-.737h-7.859l-.434.737m-.807 1.635h9.1v-.738h-8.778l-.322.738m-.554 1.639h9.654v-.737h-9.424l-.23.737m.322 7.921h9.354v-.738h-9.584l.23.738m.691 1.639h8.663v-.737h-9.007l.344.737m.97 1.635h7.693v-.737h-8.156l.463.737m1.337 1.638h6.356v-.741h-7.002l.646.741m-3.643-11.199h9.977v-.737h-9.836l-.141.737m6.08 4.653h3.804v-.738h-3.668l-.136.738m.301-1.636h3.503v-.741h-3.365l-.138.741m-6.634-.741h.988v.741h-.942l-.046-.741"/><path fill="#FFF" d="M132.71 123.284l-.063-.005-.065-.009-.059-.009-.059-.009-.055-.009-.059-.01-.06-.008-.065-.01-.064-.008-.073-.005-.082-.005-.086-.005h-.097l-.106.005-.119.01-.132.008-.092.014-.087.014-.078.027-.069.028-.064.032-.058.036-.047.047-.04.04-.03.05-.023.052-.008.054v.055l.014.06.018.06.037.059.045.06.092.086.111.069.127.06.138.05.146.046.152.05.15.055.147.06.138.077.127.096.116.115.095.142.073.174.046.206.019.247-.02.289-.031.215-.056.188-.073.173-.091.151-.105.134-.119.114-.128.1-.142.088-.146.068-.152.06-.155.045-.16.037-.156.028-.152.013-.151.01-.141.004h-.197l-.184-.004h-.16l-.151-.004-.138-.006-.123-.009-.11-.009-.105-.014-.096-.009-.087-.018-.087-.014-.079-.023-.077-.018-.073-.028-.073-.027-.078-.027.206-1.013.041.01.05.014.065.017.078.02.082.017.09.019.102.022.11.019.114.018.119.019.124.013.128.014.133.004.133.005h.133l.132-.005.133-.027.107-.037.082-.05.064-.064.044-.064.036-.074.025-.072.018-.069.008-.133-.041-.115-.078-.092-.114-.077-.137-.069-.16-.068-.179-.065-.179-.073-.183-.082-.174-.096-.16-.12-.146-.141-.116-.174-.08-.207-.042-.246.004-.293.023-.179.032-.17.046-.155.055-.147.073-.137.083-.119.096-.115.115-.1.132-.087.147-.073.165-.069.184-.05.205-.042.225-.032.246-.018.27-.005h.169l.155.005.143.005.128.004.115.01.106.008.09.01.083.01.078.008.063.013.062.01.054.01.045.008.042.005.04.01.037.004-.234 1.034"/><path stroke="#FFF" stroke-width=".216" d="M132.71 123.284l-.063-.005-.065-.009-.059-.009-.059-.009-.055-.009-.059-.01-.06-.008-.065-.01-.064-.008-.073-.005-.082-.005-.086-.005h-.097l-.106.005-.119.01-.132.008-.092.014-.087.014-.078.027-.069.028-.064.032-.058.036-.047.047-.04.04-.03.05-.023.052-.008.054v.055l.014.06.018.06.037.059.045.06.092.086.111.069.127.06.138.05.146.046.152.05.15.055.147.06.138.077.127.096.116.115.095.142.073.174.046.206.019.247-.02.289-.031.215-.056.188-.073.173-.091.151-.105.134-.119.114-.128.1-.142.088-.146.068-.152.06-.155.045-.16.037-.156.028-.152.013-.151.01-.141.004h-.197l-.184-.004h-.16l-.151-.004-.138-.006-.123-.009-.11-.009-.105-.014-.096-.009-.087-.018-.087-.014-.079-.023-.077-.018-.073-.028-.073-.027-.078-.027.206-1.013.041.01.05.014.065.017.078.02.082.017.09.019.102.022.11.019.114.018.119.019.124.013.128.014.133.004.133.005h.133l.132-.005.133-.027.107-.037.082-.05.064-.064.044-.064.036-.074.025-.072.018-.069.008-.133-.041-.115-.078-.092-.114-.077-.137-.069-.16-.068-.179-.065-.179-.073-.183-.082-.174-.096-.16-.12-.146-.141-.116-.174-.08-.207-.042-.246.004-.293.023-.179.032-.17.046-.155.055-.147.073-.137.083-.119.096-.115.115-.1.132-.087.147-.073.165-.069.184-.05.205-.042.225-.032.246-.018.27-.005h.169l.155.005.143.005.128.004.115.01.106.008.09.01.083.01.078.008.063.013.062.01.054.01.045.008.042.005.04.01.037.004-.234 1.034"/><path fill="#FFF" d="M133.796 121.119h1.268l-.187 1.108h.765l-.166 1.034-.806-.022-.439 2.554-.005.092.023.078.046.06.06.05.083.032.091.027.1.018.11.01.102-.005.091-.01.082-.013.074-.018.058-.019.042-.013.027-.01.01-.004-.16.852-.033.023-.032.018-.033.018-.031.018-.032.014-.037.014-.082.027-.046.014-.046.01-.054.008-.055.01-.06.009-.069.01-.073.008-.078.01h-.347l-.184-.015-.16-.018-.147-.027-.123-.032-.106-.042-.086-.045-.078-.055-.06-.06-.046-.064-.032-.078-.023-.078-.013-.086-.005-.097v-.1l.014-.106.013-.114.875-4.995"/><path d="M133.796 121.119h1.268l-.187 1.108h.765l-.166 1.034-.806-.022-.439 2.554-.005.092.023.078.046.06.06.05.083.032.091.027.1.018.11.01.102-.005.091-.01.082-.013.074-.018.058-.019.042-.013.027-.01.01-.004-.16.852-.033.023-.032.018-.033.018-.031.018-.032.014-.037.014-.082.027-.046.014-.046.01-.054.008-.055.01-.06.009-.069.01-.073.008-.078.01h-.347l-.184-.015-.16-.018-.147-.027-.123-.032-.106-.042-.086-.045-.078-.055-.06-.06-.046-.064-.032-.078-.023-.078-.013-.086-.005-.097v-.1l.014-.106.013-.114.875-4.995m2.856 3.868l-.012.078-.004.082.007.087.018.087.034.088.036.083.05.086.055.077.065.079.068.07.073.067.083.055.08.05.094.041.09.032.092.019.12.018.114.014.118.014.121.009.118.005h.123l.12-.005.123-.01.123-.018.125-.023.128-.027.123-.04.129-.051.133-.056.127-.072.135-.078-.184 1.126-.073.036-.074.037-.073.027-.07.028-.067.023-.074.023-.073.018-.078.014-.083.014-.092.009-.095.01-.106.008-.119.005h-.123l-.142.004h-.151l-.225-.004-.229-.023-.228-.032-.23-.055-.223-.069-.216-.088-.206-.113-.192-.133-.18-.156-.155-.188-.131-.21-.111-.243-.078-.27-.05-.307-.014-.339.023-.375.018-.146.028-.17.036-.178.05-.194.07-.195.081-.198.106-.2.128-.193.147-.183.178-.174.201-.156.23-.137.265-.115.298-.083.33-.054.371-.02.178.006.188.018.187.032.188.046.184.069.178.083.165.11.15.127.138.156.114.184.093.21.063.243.037.274.004.31-.031.349-.069.385-.024.28h-3.337l.211-.903h2.005l.01-.114-.005-.11-.01-.1-.017-.092-.033-.087-.032-.079-.046-.068-.046-.064-.054-.055-.06-.046-.069-.04-.07-.038-.07-.027-.075-.018-.078-.014-.081-.01-.088.006-.082.013-.078.02-.077.026-.08.037-.068.041-.069.05-.058.055-.06.064-.055.068-.05.074-.042.079-.041.082-.032.09-.027.093-.02.096-.183.947" stroke="#FFF" stroke-width=".216"/><path fill="#FFF" d="M147.573 122.501l-.06-.032-.059-.027-.064-.032-.07-.033-.067-.027-.078-.027-.078-.028-.083-.027-.086-.023-.088-.018-.096-.019-.096-.014-.105-.01-.106-.008h-.338l-.12.009-.123.014-.13.023-.127.036-.128.051-.127.064-.13.082-.123.101-.12.12-.114.146-.11.17-.1.2-.096.23-.086.257-.074.292-.027.164-.02.16-.008.161.005.156.013.156.032.146.041.138.051.137.068.124.083.118.096.106.11.096.124.083.14.068.157.06.175.04.06.014.067.014.083.01.092.008.1.01h.22l.115-.01.118-.013.12-.023.114-.032.114-.036.114-.051.106-.06.096-.073.092-.082-.207 1.223-.027.022-.028.028-.036.032-.041.026-.05.037-.065.033-.073.032-.083.027-.105.032-.118.023-.138.019-.16.018-.178.01-.207.004-.232-.005-.259-.014-.21-.023-.21-.045-.211-.069-.21-.092-.202-.11-.191-.137-.184-.16-.17-.183-.15-.206-.13-.229-.108-.256-.083-.28-.054-.306-.019-.325.01-.358.049-.38.038-.187.04-.184.045-.178.047-.17.05-.16.059-.16.06-.151.064-.142.07-.142.068-.133.078-.128.082-.119.082-.115.091-.11.092-.1.096-.096.105-.092.107-.087.109-.078.116-.073.122-.069.124-.059.128-.055.133-.05.142-.047.14-.036.148-.032.155-.027.156-.024.165-.017.165-.01.174-.005.146.005.143.01.137.013.138.019.128.018.124.027.117.023.11.027.106.028.092.027.087.028.073.027.064.023.055.019.041.018.029.01-.23 1.267"/><path stroke="#FFF" stroke-width=".216" d="M147.573 122.501l-.06-.032-.059-.027-.064-.032-.07-.033-.067-.027-.078-.027-.078-.028-.083-.027-.086-.023-.088-.018-.096-.019-.096-.014-.105-.01-.106-.008h-.338l-.12.009-.123.014-.13.023-.127.036-.128.051-.127.064-.13.082-.123.101-.12.12-.114.146-.11.17-.1.2-.096.23-.086.257-.074.292-.027.164-.02.16-.008.161.005.156.013.156.032.146.041.138.051.137.068.124.083.118.096.106.11.096.124.083.14.068.157.06.175.04.06.014.067.014.083.01.092.008.1.01h.22l.115-.01.118-.013.12-.023.114-.032.114-.036.114-.051.106-.06.096-.073.092-.082-.207 1.223-.027.022-.028.028-.036.032-.041.026-.05.037-.065.033-.073.032-.083.027-.105.032-.118.023-.138.019-.16.018-.178.01-.207.004-.232-.005-.259-.014-.21-.023-.21-.045-.211-.069-.21-.092-.202-.11-.191-.137-.184-.16-.17-.183-.15-.206-.13-.229-.108-.256-.083-.28-.054-.306-.019-.325.01-.358.049-.38.038-.187.04-.184.045-.178.047-.17.05-.16.059-.16.06-.151.064-.142.07-.142.068-.133.078-.128.082-.119.082-.115.091-.11.092-.1.096-.096.105-.092.107-.087.109-.078.116-.073.122-.069.124-.059.128-.055.133-.05.142-.047.14-.036.148-.032.155-.027.156-.024.165-.017.165-.01.174-.005.146.005.143.01.137.013.138.019.128.018.124.027.117.023.11.027.106.028.092.027.087.028.073.027.064.023.055.019.041.018.029.01-.23 1.267"/><path fill="#FFF" d="M158.844 127.13h-1.267l.092-.508v-.046l-.074.092-.077.082-.078.073-.082.065-.084.06-.082.049-.083.042-.087.041-.086.032-.087.023-.087.022-.092.014-.092.014-.087.01-.09.004h-.093l-.238-.019-.219-.05-.201-.078-.184-.105-.165-.133-.146-.155-.129-.17-.109-.192-.092-.207-.073-.214-.05-.224-.037-.234-.013-.234.003-.237.024-.234.042-.233.068-.272.083-.255.095-.234.115-.22.119-.206.137-.183.142-.164.15-.151.161-.134.17-.114.174-.1.173-.078.183-.065.184-.04.183-.028.188-.009.133.004.127.014.12.023.11.032.105.037.092.04.091.051.083.05.073.055.068.06.06.06.055.059.046.06.042.059.036.055.027.055.321-1.8h1.245l-1.036 5.99"/><path stroke="#FFF" stroke-width=".216" d="M158.844 127.13h-1.267l.092-.508v-.046l-.074.092-.077.082-.078.073-.082.065-.084.06-.082.049-.083.042-.087.041-.086.032-.087.023-.087.022-.092.014-.092.014-.087.01-.09.004h-.093l-.238-.019-.219-.05-.201-.078-.184-.105-.165-.133-.146-.155-.129-.17-.109-.192-.092-.207-.073-.214-.05-.224-.037-.234-.013-.234.003-.237.024-.234.042-.233.068-.272.083-.255.095-.234.115-.22.119-.206.137-.183.142-.164.15-.151.161-.134.17-.114.174-.1.173-.078.183-.065.184-.04.183-.028.188-.009.133.004.127.014.12.023.11.032.105.037.092.04.091.051.083.05.073.055.068.06.06.06.055.059.046.06.042.059.036.055.027.055.321-1.8h1.245l-1.036 5.99"/><path fill="#FBB231" d="M156.771 126.022l.129-.009.119-.027.11-.032.105-.05.096-.055.092-.07.086-.077.078-.083.069-.091.063-.101.06-.106.051-.109.045-.115.038-.119.031-.124.023-.123.022-.128.016-.132v-.125l-.006-.127-.013-.12-.02-.114-.03-.11-.038-.106-.045-.09-.055-.088-.06-.074-.068-.063-.078-.055-.083-.037-.086-.023-.097-.01-.124.01-.114.018-.105.037-.106.046-.092.06-.09.073-.078.077-.078.088-.07.1-.063.106-.06.11-.05.118-.045.124-.037.124-.036.132-.029.134-.023.201.01.22.032.223.06.216.09.188.12.15.15.102.184.036"/><path fill="#FFF" d="M128.654 126.114l-.184 1.016h-1.153l.032-.187.024-.17.017-.128.019-.07-.064.074-.074.074-.086.069-.096.063-.11.065-.115.054-.12.055-.122.046-.133.041-.133.033-.132.027-.138.018-.133.01-.132.004-.128-.014-.126-.018-.16-.041-.146-.046-.128-.06-.115-.068-.1-.073-.091-.083-.073-.087-.066-.091-.053-.096-.047-.102-.036-.1-.027-.1-.019-.106-.014-.106-.01-.1v-.101l.015-.179.028-.17.045-.159.06-.156.073-.146.083-.133.096-.128.11-.115.114-.105.128-.096.132-.087.138-.074.146-.063.152-.05.156-.042.16-.028h.009l.022-.004.032-.005.051-.005.055-.009.064-.004.069-.01.078-.008.078-.009.078-.01.082-.004.073-.01.073-.004.068-.005.064-.004h.157l.11.004.1.005h.1l.083.005.065.004.045.005h.014l.01-.032.027-.082.023-.098.008-.086-.017-.1-.041-.093-.056-.082-.073-.069-.087-.058-.096-.042-.11-.027-.12-.01-.128-.004-.137-.005h-.142l-.146.005-.15.01-.148.013-.146.013-.142.02-.137.017-.134.023-.118.023-.11.022-.101.029-.081.026-.065.033-.051.027.325-1.103.101-.041.1-.037.111-.032.11-.023.11-.023.118-.018.12-.019.123-.01.129-.008.131-.005.138-.004h.44l.16.004.16.005.129.009.137.023.143.032.145.042.141.055.14.064.136.078.128.086.114.102.102.109.092.124.068.137.046.147.027.155v.174l-.027.183-.463 2.418"/><path stroke="#FFF" stroke-width=".216" d="M128.654 126.114l-.184 1.016h-1.153l.032-.187.024-.17.017-.128.019-.07-.064.074-.074.074-.086.069-.096.063-.11.065-.115.054-.12.055-.122.046-.133.041-.133.033-.132.027-.138.018-.133.01-.132.004-.128-.014-.126-.018-.16-.041-.146-.046-.128-.06-.115-.068-.1-.073-.091-.083-.073-.087-.066-.091-.053-.096-.047-.102-.036-.1-.027-.1-.019-.106-.014-.106-.01-.1v-.101l.015-.179.028-.17.045-.159.06-.156.073-.146.083-.133.096-.128.11-.115.114-.105.128-.096.132-.087.138-.074.146-.063.152-.05.156-.042.16-.028h.009l.022-.004.032-.005.051-.005.055-.009.064-.004.069-.01.078-.008.078-.009.078-.01.082-.004.073-.01.073-.004.068-.005.064-.004h.157l.11.004.1.005h.1l.083.005.065.004.045.005h.014l.01-.032.027-.082.023-.098.008-.086-.017-.1-.041-.093-.056-.082-.073-.069-.087-.058-.096-.042-.11-.027-.12-.01-.128-.004-.137-.005h-.142l-.146.005-.15.01-.148.013-.146.013-.142.02-.137.017-.134.023-.118.023-.11.022-.101.029-.081.026-.065.033-.051.027.325-1.103.101-.041.1-.037.111-.032.11-.023.11-.023.118-.018.12-.019.123-.01.129-.008.131-.005.138-.004h.44l.16.004.16.005.129.009.137.023.143.032.145.042.141.055.14.064.136.078.128.086.114.102.102.109.092.124.068.137.046.147.027.155v.174l-.027.183-.463 2.418"/><path fill="#EC1C2E" d="M127.552 124.918l-.005-.022-.02-.023-.026-.014-.046-.009-.051-.009-.059-.005h-.138l-.074.005-.078.01-.073.008-.073.01-.068.009-.065.013-.054.014-.05.013-.032.01-.037.014-.05.018-.051.023-.059.028-.06.032-.064.032-.06.036-.064.046-.058.045-.056.056-.05.055-.046.059-.032.064-.029.073-.012.073-.005.157.023.123.045.092.06.068.069.046.077.027.073.014.075.005.138-.005.123-.014.12-.019.103-.027.093-.032.086-.04.078-.042.07-.05.06-.046.053-.055.047-.05.036-.055.032-.055.027-.055.023-.05.013-.051.038-.132.032-.152.027-.146.024-.12"/><path fill="#FFF" d="M119.021 127.13h-1.245l1.039-6.011h2.166l.205 3.567 1.498-3.567h2.261l-1.062 6.011h-1.245l.787-4.491h-.05l-1.863 4.491h-1.406l-.008-.187-.033-.5-.041-.71-.092-1.634-.042-.718-.031-.522-.01-.22h-.068l-.76 4.491"/><path stroke="#FFF" stroke-width=".216" d="M119.021 127.13h-1.245l1.039-6.011h2.166l.205 3.567 1.498-3.567h2.261l-1.062 6.011h-1.245l.787-4.491h-.05l-1.863 4.491h-1.406l-.008-.187-.033-.5-.041-.71-.092-1.634-.042-.718-.031-.522-.01-.22h-.068l-.76 4.491"/><path fill="#FFF" d="M151.378 126.114l-.187 1.016h-1.15l.01-.187.004-.165v-.124l.01-.055-.06.07-.07.067-.083.064-.09.065-.097.059-.11.055-.113.055-.115.046-.125.036-.127.037-.129.023-.127.018-.134.01-.127.004-.125-.014-.122-.018-.166-.041-.146-.046-.128-.06-.119-.068-.101-.073-.088-.083-.073-.087-.064-.091-.055-.096-.04-.102-.037-.1-.023-.1-.018-.106-.015-.106-.009-.1v-.101l.01-.179.028-.17.04-.159.06-.156.068-.146.088-.133.096-.128.105-.115.12-.105.122-.096.133-.087.142-.074.143-.063.15-.05.151-.042.155-.028h.01l.023-.004.032-.005.046-.005.06-.009.064-.004.068-.01.074-.008.077-.009.082-.01.078-.004.08-.01.072-.004.064-.005.063-.004h.16l.111.004.105.005h.102l.086.005.074.004.041.005h.019l.008-.032.014-.082.013-.098.01-.086-.02-.1-.034-.093-.06-.082-.07-.069-.081-.058-.097-.042-.101-.027-.11-.01-.128-.004-.137-.005h-.143l-.146.005-.152.01-.146.013-.146.013-.142.02-.137.017-.133.023-.118.023-.11.022-.102.029-.082.026-.064.033-.05.027.32-1.103.1-.041.106-.037.105-.032.11-.023.115-.023.114-.018.12-.019.123-.01.128-.008.134-.005.131-.004h.431l.156.004.156.005.128.009.138.023.141.032.147.042.142.055.14.064.139.078.128.086.114.102.107.109.09.124.069.137.05.147.032.155v.174l-.023.183-.48 2.418"/><path fill="#FFF" d="M151.19 127.162l.028-.027.187-1.017-.055-.009-.188 1.017.029-.028v.064l.022-.005.005-.022-.027.027"/><path fill="#FFF" d="M150.013 127.13l.028.032h1.15v-.064h-1.15l.027.032h-.055l-.004.032h.032l-.028-.032"/><path fill="#FFF" d="M150.087 126.617l-.041-.036-.02.073-.004.124v.165l-.01.187h.056l.01-.187.009-.165-.006-.124v-.037l-.04-.036.046.036"/><path fill="#FFF" d="M148.306 127.204l.127.018.125.013.127-.003.134-.01.132-.018.129-.024.127-.035.128-.038.114-.046.12-.054.109-.055.097-.064.096-.065.083-.063.073-.074.06-.07-.046-.035-.06.068-.064.064-.082.065-.088.064-.096.055-.11.055-.11.055-.114.045-.12.037-.127.037-.128.023-.123.017-.134.01-.127.004-.125-.014-.12-.017-.007.055"/><path fill="#FFF" d="M147.197 125.816l.005.1.009.101.013.11.019.106.024.1.036.106.041.105.06.096.064.096.073.087.092.087.105.074.119.073.133.06.15.045.166.042.008-.055-.164-.042-.141-.046-.125-.059-.12-.064-.096-.073-.082-.079-.073-.086-.064-.087-.05-.096-.042-.097-.036-.095-.023-.101-.018-.106-.013-.1-.01-.101.005-.101h-.065m1.643-1.758l-.158.027-.156.042-.15.05-.148.064-.142.073-.139.092-.122.097-.119.109-.11.115-.096.127-.092.138-.069.151-.06.156-.04.165-.028.173-.014.179h.065l.005-.179.027-.164.04-.156.06-.156.07-.142.082-.128.096-.128.1-.114.118-.101.125-.097.127-.082.143-.073.136-.063.152-.051.146-.042.151-.027v-.055"/><path fill="#FFF" d="M149.784 123.962h-.05l-.064.01-.064.005-.073.003-.079.009-.078.005-.082.01-.077.008-.074.01-.068.01-.065.003-.059.01-.046.004-.036.004-.02.005h-.009v.055h.01l.028-.005.027-.004.046-.005.06-.009.064-.005.068-.009.074-.01.077-.008.082-.01.078-.004.08-.01.072-.003.064-.005h.114v-.064"/><path fill="#FFF" d="M150.402 124.012l.029-.023h-.019l-.041-.004-.074-.005-.086-.009h-.207l-.11-.01h-.11v.065h.22l.105.009h.188l.074.005.041.004h.019l.026-.023-.026.023.022.005.004-.028-.055-.01"/><path fill="#FFF" d="M150.448 123.72h-.004l-.005.085-.014.093-.013.082-.01.032.055.01.01-.033.013-.083.015-.1.014-.087h-.06"/><path fill="#FFF" d="M149.903 123.266v.004l.106.005.095.028.093.04.077.056.064.064.055.078.038.082.017.096h.055l-.018-.105-.037-.101-.064-.086-.073-.074-.088-.064-.101-.041-.104-.028-.115-.013v.059m-1.964.22l.046.027.046-.023.059-.032.078-.028.101-.026.11-.023.119-.024.133-.023.132-.017.142-.02.146-.013.146-.014.152-.009h.426l.128.005v-.055l-.128-.004-.137-.01h-.143l-.146.01-.152.008-.146.014-.146.014-.142.018-.142.018-.133.024-.119.023-.11.023-.1.026-.087.029-.069.031-.056.032.048.028-.056-.01"/><path fill="#FFF" d="M148.279 122.36l-.02.023-.32 1.103.056.009.319-1.104-.018.024-.017-.056-.015.005-.004.019.019-.024"/><path fill="#FFF" d="M150.316 122.15l-.156-.01-.156-.005h-.431l-.131.01-.134.004-.128.01-.124.008-.124.018-.113.018-.115.024-.111.023-.11.032-.104.036-.1.041.017.056.101-.042.105-.036.1-.033.112-.022.114-.024.114-.018.114-.018.124-.009.128-.01.134-.004h.562l.156.004h.156v-.054"/><path fill="#FFF" d="M151.886 123.701l.023-.188v-.174l-.031-.16-.05-.152-.074-.14-.092-.13-.11-.113-.115-.102-.132-.087-.138-.082-.146-.064-.143-.055-.15-.04-.143-.033-.141-.022-.128-.01v.054l.128.01.132.023.142.032.143.041.141.055.137.064.138.073.124.087.114.1.1.107.091.118.066.134.05.141.032.151v.174l-.024.18.056.008"/><path fill="#FFF" d="M151.405 126.118l.48-2.417-.055-.009-.48 2.417.055.01"/><path fill="#FBB231" d="M150.27 124.918l-.01-.027-.017-.022-.032-.015-.047-.013-.05-.005-.059-.005h-.07l-.068.005-.074.01-.072.008-.073.01-.07.01-.068.013-.06.009-.058.014-.047.008-.031.005-.037.014-.046.014-.05.018-.06.027-.056.029-.064.031-.059.04-.06.043-.059.05-.05.05-.051.06-.04.064-.033.068-.027.074-.014.077-.005.157.023.123.038.092.053.068.069.046.079.027.077.014.078.005.137-.005.128-.014.12-.023.105-.031.1-.037.087-.041.083-.046.073-.055.065-.05.054-.06.05-.055.042-.06.032-.055.022-.054.02-.055.013-.05.018-.129.024-.133.017-.127.01-.116"/><path fill="#FFF" d="M159.701 126.503l.01-.106.036-.123.065-.11.078-.096.095-.077.11-.056.119-.037.128-.013.13.013.117.037.111.056.096.077.078.096.063.11.038.123.009.106h-.138l-.004-.083-.028-.1-.045-.092-.06-.078-.074-.064-.085-.045-.102-.033-.106-.009-.105.01-.1.032-.089.045-.073.064-.058.078-.046.092-.027.1-.01.083h-.133"/><path fill="#FFF" d="M160.114 126.503v-.275h.252l.055.005.05.009.036.014.033.018.022.027.018.028.01.032.004.032-.005.041-.01.032-.012.028-.01.01h-.191l.017-.006.032-.004.028-.01.024-.008.017-.014.01-.015.01-.021v-.033l-.006-.023-.009-.019-.015-.008-.013-.01-.022-.004-.024-.004h-.187v.178h-.114"/><path fill="#FFF" d="M159.701 126.503l-.004.028.014.132.036.123.065.11.078.092.095.078.11.06.119.036.128.014.13-.014.117-.036.111-.06.096-.078.078-.091.063-.11.038-.124.014-.132-.005-.028h-.138l.005.028-.01.11-.027.1-.045.088-.06.076-.074.065-.085.05-.102.032-.106.01-.105-.01-.1-.032-.089-.05-.073-.065-.058-.076-.046-.088-.027-.1-.01-.11v-.028h-.133"/><path fill="#FFF" d="M160.114 126.503v.28h.114v-.23h.114l.138.23h.09l-.136-.23h.033l.03-.01.03-.008.023-.018.007-.014h-.191l-.024.005h-.114v-.005h-.114"/><path d="M160.342 127.061l.106-.009.102-.032.085-.05.073-.065.06-.076.046-.088.028-.1.01-.11-.01-.11-.028-.101-.045-.092-.06-.078-.074-.064-.085-.045-.102-.033-.106-.009-.105.01-.1.032-.089.045-.073.064-.058.078-.046.092-.027.1-.01.11.01.11.027.101.046.088.058.076.073.065.089.05.1.032.105.01m0-.554l.041-.01.032-.004.028-.01.024-.008.017-.014.01-.015.01-.021v-.033l-.006-.023-.009-.019-.015-.008-.013-.01-.022-.004-.024-.004h-.187v.183h.114m-.114.275h-.114v-.555h.252l.055.005.05.009.036.014.033.018.022.027.018.028.01.032.004.032-.005.041-.01.032-.012.028-.017.023-.024.018-.028.009-.031.01h-.033l.137.229h-.091l-.138-.23h-.114v.23m-.53-.252l.013-.134.036-.123.065-.11.078-.096.095-.077.11-.056.119-.037.128-.013.13.013.117.037.111.056.096.077.078.096.063.11.038.123.014.134-.014.132-.038.123-.063.11-.078.092-.096.078-.11.06-.118.036-.13.014-.128-.014-.12-.036-.109-.06-.095-.078-.078-.091-.065-.11-.036-.124-.014-.132" stroke="#FFF" stroke-width=".216"/><path fill="#FFF" d="M151.721 127.13h1.29l.464-2.605.017-.1.028-.101.028-.101.037-.1.046-.102.054-.096.06-.091.074-.088.081-.077.092-.073.105-.07.12-.055.132-.044.146-.037.16-.028.18-.01h.114l.206-1.176-.129.009-.123.014-.114.023-.11.032-.101.036-.096.047-.091.05-.087.055-.083.064-.078.064-.073.074-.073.072-.07.079-.067.086-.07.082-.064.092.138-.828h-1.287l-.856 4.903"/><path stroke="#FFF" stroke-width=".216" d="M151.721 127.13h1.29l.464-2.605.017-.1.028-.101.028-.101.037-.1.046-.102.054-.096.06-.091.074-.088.081-.077.092-.073.105-.07.12-.055.132-.044.146-.037.16-.028.18-.01h.114l.206-1.176-.129.009-.123.014-.114.023-.11.032-.101.036-.096.047-.091.05-.087.055-.083.064-.078.064-.073.074-.073.072-.07.079-.067.086-.07.082-.064.092.138-.828h-1.287l-.856 4.903"/><path fill="#FFF" d="M139.597 127.13h1.314l.439-2.605.02-.1.022-.097.023-.095.032-.093.036-.091.046-.087.054-.082.066-.078.073-.07.082-.068.1-.055.11-.05.13-.042.14-.035.156-.024.179-.014h.013l.019.005.022.005h.024l.023.004.018.005.013.004h.005l.005-.018.014-.055.017-.082.024-.101.032-.12.032-.128.042-.127.04-.13.038-.086.045-.087.045-.086.046-.078.042-.069.032-.055.022-.032.009-.014h-.005l-.017-.005-.024-.004-.032-.005h-.031l-.037-.004-.032-.005h-.031l-.143.009-.128.014-.12.023-.11.028-.105.036-.096.047-.087.044-.082.055-.078.06-.073.07-.068.068-.07.077-.068.079-.065.087-.068.09-.069.092.165-.828h-1.313l-.857 4.903"/><path stroke="#FFF" stroke-width=".216" d="M139.597 127.13h1.314l.439-2.605.02-.1.022-.097.023-.095.032-.093.036-.091.046-.087.054-.082.066-.078.073-.07.082-.068.1-.055.11-.05.13-.042.14-.035.156-.024.179-.014h.013l.019.005.022.005h.024l.023.004.018.005.013.004h.005l.005-.018.014-.055.017-.082.024-.101.032-.12.032-.128.042-.127.04-.13.038-.086.045-.087.045-.086.046-.078.042-.069.032-.055.022-.032.009-.014h-.005l-.017-.005-.024-.004-.032-.005h-.031l-.037-.004-.032-.005h-.031l-.143.009-.128.014-.12.023-.11.028-.105.036-.096.047-.087.044-.082.055-.078.06-.073.07-.068.068-.07.077-.068.079-.065.087-.068.09-.069.092.165-.828h-1.313l-.857 4.903"/><path fill="#FBB231" d="M159.71 131.947v-.019l.037-.118.065-.106.078-.091.095-.074.11-.055.119-.031.128-.014.13.014.117.03.111.056.096.074.078.091.063.106.038.118v.02h-.133l-.028-.097-.045-.087-.06-.079-.074-.063-.085-.05-.102-.033-.106-.009-.105.01-.1.031-.089.051-.073.063-.058.079-.046.087-.027.096h-.133"/><path fill="#FBB231" d="M160.114 131.947v-.16h.307l.05.01.036.007.033.019.022.023.018.028.01.032.004.041h-.09v-.023l-.006-.023-.009-.018-.015-.01-.013-.008-.022-.005-.024-.005h-.187v.092h-.114m-.417.1l.014-.1h.133v.004l-.01.096h-.137"/><path fill="#FBB231" d="M160.114 132.047v-.1h.114v.091h.114l.041-.008.032-.005.028-.01.024-.009.017-.013.01-.014.01-.022v-.01h.09l-.005.032-.01.027-.012.024-.017.017h-.436m.737 0l-.01-.096v-.004h.134l.014.1h-.138"/><path fill="#FBB231" d="M159.697 132.047v.014l.014.133.036.123.065.11.078.097.095.078.11.054.119.037.128.014.13-.014.117-.037.111-.054.096-.078.078-.097.063-.11.038-.123.014-.133v-.014h-.138v.014l-.01.11-.027.101-.045.087-.06.077-.074.065-.085.05-.102.032-.106.01-.105-.01-.1-.031-.089-.05-.073-.066-.058-.077-.046-.087-.027-.1-.01-.11v-.015h-.137"/><path fill="#FBB231" d="M160.114 132.047v.266h.114v-.229h.114l.138.23h.09l-.136-.23h.033l.03-.009.03-.009.023-.019h-.436"/><path d="M138.498 124.108h-1.672v-.004h-.002l.012-.064.019-.096.027-.092.032-.091.04-.082.043-.079.05-.074.055-.068.06-.064.058-.055.07-.05.068-.041.079-.037.077-.027.078-.02.082-.012.088-.005.081.009.078.014.074.018.072.027.07.037.068.041.06.046.054.055.046.064.046.068.032.079.033.087.017.091.01.1.005.111-.01.114zm1.24-.421l-.036-.274-.063-.243-.093-.21-.114-.184-.138-.156-.15-.128-.165-.11-.178-.082-.184-.07-.188-.045-.187-.032-.188-.018-.178-.005-.371.02-.33.053-.298.083-.265.115-.23.137-.201.156-.178.174-.147.183-.128.192-.106.201-.08.198-.07.195-.051.194-.036.177-.028.17-.018.147-.023.375.013.339.05.307.079.27.11.242.132.211.156.188.179.156.192.133.206.113.216.088.224.069.23.055.227.032.229.023.225.004h.15l.143-.004h.123l.119-.005.106-.009.095-.009.092-.009.083-.014.078-.014.073-.018.074-.023.068-.023.069-.028.073-.027.074-.037.073-.036.184-1.126-.135.078-.127.072-.133.056-.129.05-.123.041-.128.027-.125.023-.123.019-.123.009-.12.005h-.123l-.118-.005-.12-.01-.12-.013-.112-.014-.12-.018-.092-.019-.091-.032-.093-.04-.081-.051-.083-.055-.073-.068-.068-.07-.065-.078-.056-.077-.05-.086-.035-.083-.034-.088-.018-.087-.007-.087.003-.077.011-.06h2.97l.023-.279.069-.385.031-.348-.004-.311z" fill="#FFF"/><path d="M80.656 145.364a2.522 2.522 0 0 1-2.521 2.522H7.522A2.522 2.522 0 0 1 5 145.364v-42.242a2.521 2.521 0 0 1 2.522-2.521h70.613a2.52 2.52 0 0 1 2.521 2.521v42.242" fill="#F9F9F9"/><path d="M55.17 126.418a3.359 3.359 0 0 1-.495.256 1.779 1.779 0 0 1-.656.143c-.314 0-.555-.046-.717-.14-.163-.09-.248-.246-.246-.47 0-.257.06-.457.182-.614.125-.151.31-.273.538-.363.228-.078.508-.141.83-.186.288-.036.856-.102.928-.103.072 0 .121-.04.089.153a46.93 46.93 0 0 1-.255 1.063c-.021.092-.143.226-.198.261zm2.228-4.73c-.479-.266-1.226-.401-2.25-.401-.506 0-1.015.04-1.525.12-.375.056-.413.066-.646.116-.479.105-.554.585-.554.585l-.152.632c-.088.404.142.388.245.357.209-.064.322-.127.75-.223.407-.092.837-.162 1.181-.159.504 0 .887.055 1.142.162.255.111.382.3.382.57 0 .065.002.126-.02.18-.022.049-.062.097-.184.113-.718.043-1.234.108-1.857.2-.613.086-1.15.233-1.599.439-.478.211-.836.495-1.082.855-.24.362-.361.8-.362 1.315 0 .488.175.886.514 1.194.343.305.79.455 1.328.455a3.52 3.52 0 0 0 .79-.074c.187-.047.392-.114.607-.207.161-.068.336-.165.518-.287.185-.123.312-.21.476-.318l.006.01-.047.204c0 .002-.003.003-.003.004l.002.004c-.053.245.095.447.336.473l.004.003h.02l.002.001h1.148c.012 0 .014-.004.018-.008a.655.655 0 0 0 .54-.473l.92-3.969c.02-.093.037-.2.047-.326.011-.125.025-.228.021-.303.002-.56-.24-.976-.716-1.244z" fill="#369"/><path d="M41.574 121.374c-.268 0-.623.219-.79.483 0 0-1.805 3.094-1.982 3.403-.097.166-.194.06-.211 0l-.558-3.383c-.062-.266-.34-.494-.688-.493l-1.125.002c-.272 0-.442.216-.38.48 0 0 .86 4.875 1.028 6.022.083.633-.01.747-.01.747l-1.115 1.944c-.163.263-.073.48.197.48l1.303-.002c.27 0 .628-.214.79-.478l5.016-8.486s.48-.725.037-.719c-.3.006-1.512 0-1.512 0m-13.117-.794a1.876 1.876 0 0 0-.691-.74 3.176 3.176 0 0 0-1.093-.403 9.118 9.118 0 0 0-1.487-.118l-2.629.002a.657.657 0 0 0-.604.48l-1.773 7.707c-.061.263.11.481.382.481h1.26a.645.645 0 0 0 .603-.48l.433-1.872a.645.645 0 0 1 .601-.478h.36c1.54-.001 2.735-.316 3.593-.947.858-.63 1.287-1.463 1.285-2.496.002-.453-.077-.832-.24-1.135m-2.72 2.519c-.38.277-.906.417-1.59.417h-.309c-.272 0-.444-.216-.383-.482l.38-1.633a.64.64 0 0 1 .6-.48l.412-.002c.482 0 .848.082 1.095.247.243.158.368.41.362.75.007.509-.186.904-.567 1.183" fill="#036"/><path d="M51.322 120.609a1.932 1.932 0 0 0-.693-.742 3.115 3.115 0 0 0-1.095-.403 8.693 8.693 0 0 0-1.482-.116h-2.635a.657.657 0 0 0-.6.481l-1.771 7.709a.373.373 0 0 0 .377.48l1.265-.002a.656.656 0 0 0 .605-.478l.427-1.87a.646.646 0 0 1 .605-.478h.359c1.543 0 2.739-.317 3.595-.948.854-.634 1.283-1.465 1.283-2.499-.002-.452-.08-.832-.24-1.134m-2.718 2.522c-.377.274-.907.412-1.589.412h-.313c-.271.003-.446-.216-.382-.479l.378-1.636a.642.642 0 0 1 .598-.477l.414-.003c.484.003.846.084 1.096.244.244.163.363.416.364.751.002.513-.187.907-.566 1.188" fill="#369"/><path d="M32.3 126.413a3.332 3.332 0 0 1-.496.255 1.787 1.787 0 0 1-.657.142c-.312 0-.554-.044-.717-.139-.162-.09-.247-.246-.245-.47 0-.257.06-.457.184-.614.124-.152.306-.273.536-.363.228-.078.508-.14.83-.187.288-.036.855-.1.928-.102.072 0 .121-.04.09.153a49.57 49.57 0 0 1-.255 1.063c-.022.093-.144.226-.199.262zm2.227-4.73c-.479-.267-1.226-.402-2.25-.402-.506 0-1.015.04-1.525.119-.375.057-.413.068-.646.118-.479.105-.553.584-.553.584l-.153.632c-.088.405.143.388.246.356.208-.063.322-.125.748-.222.407-.093.838-.161 1.182-.16.504 0 .887.056 1.142.162.255.112.38.302.38.572a.385.385 0 0 1-.019.178c-.021.05-.062.098-.182.114a20.64 20.64 0 0 0-1.858.199c-.614.087-1.15.234-1.598.44-.48.212-.836.496-1.083.856-.241.361-.362.8-.362 1.314 0 .488.175.885.514 1.194.343.305.79.455 1.328.455.338-.002.6-.027.79-.074a4.09 4.09 0 0 0 .607-.207c.162-.068.335-.166.519-.287.184-.123.312-.21.475-.317l.005.01-.046.202-.002.006.001.003c-.053.245.094.448.336.471l.003.005h.022v.003l.969-.003h.18c.013 0 .014-.004.018-.007a.658.658 0 0 0 .54-.472l.92-3.97c.02-.093.037-.201.046-.326.013-.125.026-.228.022-.302.003-.562-.24-.977-.716-1.245z" fill="#036"/><path d="M61.74 119.411h-1.129a.648.648 0 0 0-.585.437c-.005.015-.015.028-.019.043l-.062.283-1.556 7.052-.07.304.003.005c-.052.243.095.44.333.465l.006.01h1.17c.255 0 .51-.195.586-.44.004-.014.014-.025.018-.04l1.689-7.64h-.003c.056-.261-.11-.479-.381-.479m3.75 1.567h-.208v-.698a1.58 1.58 0 0 0-.007-.153.32.32 0 0 0-.03-.117.16.16 0 0 0-.073-.07.376.376 0 0 0-.309.02.984.984 0 0 0-.173.108 1.15 1.15 0 0 1 .007.124v.786h-.205v-.698a1.76 1.76 0 0 0-.008-.154.316.316 0 0 0-.03-.116.165.165 0 0 0-.073-.072.38.38 0 0 0-.306.019 1.05 1.05 0 0 0-.17.105v.916H63.7v-1.226h.206v.135a.932.932 0 0 1 .194-.124.476.476 0 0 1 .416.008.326.326 0 0 1 .131.146.984.984 0 0 1 .228-.152.539.539 0 0 1 .22-.047c.135 0 .234.041.299.122a.549.549 0 0 1 .096.342v.796m-2.04-.012a.819.819 0 0 1-.126.025.726.726 0 0 1-.122.01c-.126 0-.221-.033-.286-.1-.064-.067-.097-.175-.097-.324v-.651h-.14v-.174h.14v-.351h.206v.351h.425v.174h-.425v.558c0 .064.002.114.004.15a.25.25 0 0 0 .03.103c.016.03.039.05.067.064a.408.408 0 0 0 .234.005.624.624 0 0 0 .08-.025h.01v.185" fill="#369"/><rect fill="#FFC43A" width="470" height="80" rx="8"/><g transform="translate(290 20)"><mask id="e" fill="#fff"><use xlink:href="#d"/></mask><path d="M102.286 11.035c-.636 4.176-3.826 4.176-6.911 4.176h-1.756l1.231-7.798a.97.97 0 0 1 .959-.818h.804c2.1 0 4.084 0 5.107 1.196.612.716.797 1.777.566 3.244zM100.943.137H89.307c-.796 0-1.473.58-1.597 1.365L83.005 31.34a.97.97 0 0 0 .958 1.121h5.97c.557 0 1.031-.405 1.118-.955l1.334-8.46a1.616 1.616 0 0 1 1.597-1.364h3.682c7.665 0 12.088-3.71 13.244-11.061.52-3.215.021-5.742-1.484-7.51-1.655-1.945-4.588-2.973-8.48-2.973z" fill="#238EC2" mask="url(#e)"/><path d="M19.294 11.035c-.637 4.176-3.827 4.176-6.912 4.176h-1.756l1.232-7.798a.97.97 0 0 1 .958-.818h.805c2.1 0 4.084 0 5.107 1.196.611.716.797 1.777.566 3.244zM17.95.137H6.314c-.795 0-1.473.58-1.597 1.365L.012 31.34a.97.97 0 0 0 .958 1.12h5.556c.796 0 1.473-.579 1.597-1.365l1.27-8.05a1.617 1.617 0 0 1 1.597-1.364h3.681c7.665 0 12.088-3.71 13.245-11.061.52-3.215.02-5.742-1.485-7.51C24.776 1.165 21.843.137 17.95.137z" fill="#253666" mask="url(#e)"/></g><path d="M334.964 41.746c-.538 3.184-3.065 5.321-6.289 5.321-1.616 0-2.91-.52-3.74-1.504-.825-.976-1.136-2.366-.874-3.914.502-3.155 3.07-5.36 6.244-5.36 1.582 0 2.867.523 3.715 1.517.854 1 1.189 2.4.944 3.94zM342.73 30.9h-5.571a.97.97 0 0 0-.959.819l-.244 1.558-.39-.564c-1.207-1.752-3.896-2.337-6.581-2.337-6.156 0-11.414 4.665-12.438 11.207-.532 3.264.224 6.383 2.074 8.56 1.7 2 4.127 2.833 7.018 2.833 4.961 0 7.713-3.187 7.713-3.187l-.248 1.548a.97.97 0 0 0 .958 1.122h5.017c.796 0 1.473-.578 1.597-1.364l3.013-19.074a.97.97 0 0 0-.959-1.12z" fill="#253666"/><path d="M417.957 41.746c-.538 3.184-3.066 5.321-6.289 5.321-1.616 0-2.91-.52-3.742-1.504-.824-.976-1.134-2.366-.872-3.914.501-3.155 3.07-5.36 6.244-5.36 1.582 0 2.866.523 3.714 1.517.854 1 1.19 2.4.945 3.94zm7.765-10.845h-5.572a.97.97 0 0 0-.958.819l-.245 1.558-.39-.564c-1.206-1.752-3.895-2.337-6.58-2.337-6.156 0-11.415 4.665-12.439 11.207-.532 3.264.224 6.383 2.075 8.56 1.7 2 4.126 2.833 7.017 2.833 4.962 0 7.714-3.187 7.714-3.187l-.249 1.548a.97.97 0 0 0 .959 1.122h5.017c.795 0 1.473-.578 1.597-1.364l3.012-19.074a.97.97 0 0 0-.958-1.12z" fill="#238EC2"/><g transform="translate(346.216 20)"><mask id="g" fill="#fff"><use xlink:href="#f"/></mask><path d="M26.19 10.901h-5.601c-.536 0-1.037.266-1.338.709l-7.725 11.378-3.274-10.934a1.617 1.617 0 0 0-1.549-1.153H1.198a.97.97 0 0 0-.919 1.283l6.167 18.1-5.8 8.185A.97.97 0 0 0 1.437 40h5.595c.53 0 1.027-.26 1.33-.696l18.624-26.88a.97.97 0 0 0-.797-1.523" fill="#253666" mask="url(#g)"/><path d="M86.073.957l-4.776 30.382a.97.97 0 0 0 .959 1.121h4.802c.796 0 1.473-.579 1.597-1.365l4.71-29.836a.97.97 0 0 0-.96-1.122h-5.374a.97.97 0 0 0-.958.82" fill="#238EC2" mask="url(#g)"/></g><text font-family="Montserrat-Regular, Montserrat" font-size="28" fill="#000"><tspan x="30" y="50">Donate now with</tspan></text></g></svg>