<?xml version="1.0" encoding="UTF-8"?>
<svg width="354px" height="100px" viewBox="0 0 354 100" version="1.1" xmlns="http://www.w3.org/2000/svg" xmlns:xlink="http://www.w3.org/1999/xlink">
    <!-- Generator: Sketch 49.3 (51167) - http://www.bohemiancoding.com/sketch -->
    <title>Logo Horizontal White</title>
    <desc>Created with Sketch.</desc>
    <defs></defs>
    <g id="Logo-Horizontal-White" stroke="none" stroke-width="1" fill="none" fill-rule="evenodd">
        <text id="Emma’s-Hope" font-family="Montserrat-Light, Montserrat" font-size="40" font-weight="300" letter-spacing="-2" fill="#FFFFFF">
            <tspan x="99.4" y="65">Emma’s Hope</tspan>
        </text>
        <g id="E-Logo" fill="#FFFFFF">
            <path d="M29.5890411,43.7000008 L45.7534247,43.7000008 L45.7534247,36 L60.3028682,36 L60.3028682,61 L45.7534247,61 L45.7534247,53.2890419 L29.5890411,53.2890419 L29.5890411,61 L15.0684932,61 L15.0684932,36 L29.5890411,36 L29.5890411,43.7000008 Z" id="Combined-Shape"></path>
            <path d="M15.0684932,32.6027397 L15.0096318,22.072988 C15.0096318,17.0965077 14.1668535,13.6317521 12.4812714,11.6786173 C10.7956893,9.72548253 7.30417888,8.74892979 2.00663527,8.74892979 L0,8.74892979 L0,0 L81.7476455,0 L83.3529538,28.1731592 L74.3632277,28.1731592 C72.7579115,23.2501894 70.9653352,19.3306011 68.9854452,16.4142765 C67.0055552,13.497952 65.0123174,11.6251112 63.0056721,10.7956978 C60.9990268,9.96628438 57.6145358,9.5515839 52.8520976,9.5515839 L29.53125,9.5515839 L29.5890411,32.6027397 L15.0684932,32.6027397 Z" id="E"></path>
            <path d="M29.5890411,65.2054795 L29.5890411,74.6757277 C29.5890411,80.8512957 30.0995262,83.1704758 30.6881421,84.7490368 C31.2767581,86.3275978 32.8552954,87.6385864 35.4238014,88.682042 C37.9923074,89.7254975 44.6382443,90.2472175 49.8822774,90.2472175 C56.9991794,90.2472175 62.2297564,89.3643068 65.5741652,87.5984589 C68.9185741,85.832611 71.9151195,82.7290462 74.5638913,78.2876712 C77.2126631,73.8462963 79.1256362,69.1106844 80.3028682,64.0806935 L89.2925942,64.0806935 L88.5702055,99.7988014 L0,99.7988014 L0,90.8893408 L2.00663527,90.8893408 C7.41119997,90.8893408 10.9294653,89.8860331 12.5615368,87.8793878 C14.1936083,85.8727425 15.0096318,82.4347418 15.0096318,77.5652825 L15.0684932,65.2054795 L29.5890411,65.2054795 Z" id="E"></path>
        </g>
    </g>
</svg>